<svg xmlns="http://www.w3.org/2000/svg" viewBox="0 0 512 512">
  <defs>
    <linearGradient id="grad" x1="0%" y1="0%" x2="100%" y2="100%">
      <stop offset="0%" style="stop-color:#065f46;stop-opacity:1" />
      <stop offset="100%" style="stop-color:#10b981;stop-opacity:1" />
    </linearGradient>
  </defs>
  <rect width="512" height="512" rx="128" ry="128" fill="url(#grad)" />
  <path d="M256 96c0 0-16 64-80 112-64 48-80 128-80 128s16 80 96 80c48 0 80-32 80-32s-16-48-16-96c0-48 64-96 112-112 0 0-32-64-96-80-64-16-16 0-16 0z" fill="#ecfdf5" opacity="0.9"/>
  <path d="M256 416c0 0-16-48-16-96 0-48 48-80 112-96 0 0 16 64-32 112-48 48-64 80-64 80z" fill="#047857" opacity="0.5"/>
</svg>
